<svg width="200" height="200" viewBox="0 0 200 200" fill="none" xmlns="http://www.w3.org/2000/svg">
<circle cx="100" cy="100" r="95" stroke="black" stroke-width="5"/>
<path d="M70 130V70H85C88.3152 70 91.4924 71.3161 93.8388 73.1716C96.1852 75.0271 97.5 77.8396 97.5 80.75C97.5 83.6604 96.1852 86.4729 93.8388 88.3284C91.4924 90.1839 88.3152 91.5 85 91.5H70V130ZM70 91.5H85C86.3261 91.5 87.598 90.9732 88.5355 90.0355C89.4732 89.0979 90 87.8261 90 86.5C90 85.1739 89.4732 83.9021 88.5355 82.9645C87.598 82.0268 86.3261 81.5 85 81.5H70V91.5Z" fill="black"/>
<path d="M115 130V70H130C133.315 70 136.492 71.3161 138.839 73.1716C141.185 75.0271 142.5 77.8396 142.5 80.75C142.5 83.6604 141.185 86.4729 138.839 88.3284C136.492 90.1839 133.315 91.5 130 91.5H115V130ZM115 91.5H130C131.326 91.5 132.598 90.9732 133.536 90.0355C134.473 89.0979 135 87.8261 135 86.5C135 85.1739 134.473 83.9021 133.536 82.9645C132.598 82.0268 131.326 81.5 130 81.5H115V91.5Z" fill="black"/>
</svg>
